HIERARCHY
ROOT Hips
{
	OFFSET -0.001795 -0.223333 0.028219
	CHANNELS 6 Xposition Yposition Zposition Zrotation Yrotation Xrotation 
	JOINT LeftUpLeg
	{
		OFFSET 0.069520 -0.091406 -0.006815
		CHANNELS 3 Zrotation Yrotation Xrotation
		JOINT LeftLeg
		{
			OFFSET 0.034277 -0.375199 -0.004496
			CHANNELS 3 Zrotation Yrotation Xrotation
			JOINT LeftFoot
			{
				OFFSET -0.013596 -0.397961 -0.043693
				CHANNELS 3 Zrotation Yrotation Xrotation
				JOINT LeftToe
				{
					OFFSET 0.026358 -0.055791 0.119288
					CHANNELS 3 Zrotation Yrotation Xrotation
					End Site
					{
						OFFSET 0.000000 0.000000 0.000000
					}
				}
			}
		}
	}
	JOINT RightUpLeg
	{
		OFFSET -0.067670 -0.090522 -0.004320
		CHANNELS 3 Zrotation Yrotation Xrotation
		JOINT RightLeg
		{
			OFFSET -0.038290 -0.382569 -0.008850
			CHANNELS 3 Zrotation Yrotation Xrotation
			JOINT RightFoot
			{
				OFFSET 0.015774 -0.398415 -0.042312
				CHANNELS 3 Zrotation Yrotation Xrotation
				JOINT RightToe
				{
					OFFSET -0.025372 -0.048144 0.123348
					CHANNELS 3 Zrotation Yrotation Xrotation
					End Site
					{
						OFFSET 0.000000 0.000000 0.000000
					}
				}
			}
		}
	}
	JOINT Spine
	{
		OFFSET -0.002533 0.108963 -0.026696
		CHANNELS 3 Zrotation Yrotation Xrotation
		JOINT Spine1
		{
			OFFSET 0.005487 0.135180 0.001092
			CHANNELS 3 Zrotation Yrotation Xrotation
			JOINT Spine2
			{
				OFFSET 0.001457 0.052922 0.025425
				CHANNELS 3 Zrotation Yrotation Xrotation
				JOINT Neck
				{
					OFFSET -0.002778 0.213870 -0.042857
					CHANNELS 3 Zrotation Yrotation Xrotation
					JOINT Head
					{
						OFFSET 0.005152 0.064970 0.051349
						CHANNELS 3 Zrotation Yrotation Xrotation
						End Site
						{
							OFFSET 0.000000 0.000000 0.000000
						}
					}
				}
				JOINT LeftShoulder
				{
					OFFSET 0.078845 0.121749 -0.034090
					CHANNELS 3 Zrotation Yrotation Xrotation
					JOINT LeftArm
					{
						OFFSET 0.090977 0.030469 -0.008868
						CHANNELS 3 Zrotation Yrotation Xrotation
						JOINT LeftForeArm
						{
							OFFSET 0.259612 -0.012772 -0.027456
							CHANNELS 3 Zrotation Yrotation Xrotation
							JOINT LeftHand
							{
								OFFSET 0.249234 0.008986 -0.001171
								CHANNELS 3 Zrotation Yrotation Xrotation
								End Site
								{
									OFFSET 0.000000 0.000000 0.000000
								}
							}
						}
					}
				}
				JOINT RightShoulder
				{
					OFFSET -0.081759 0.118833 -0.038615
					CHANNELS 3 Zrotation Yrotation Xrotation
					JOINT RightArm
					{
						OFFSET -0.096012 0.032551 -0.009143
						CHANNELS 3 Zrotation Yrotation Xrotation
						JOINT RightForeArm
						{
							OFFSET -0.253742 -0.013329 -0.021401
							CHANNELS 3 Zrotation Yrotation Xrotation
							JOINT RightHand
							{
								OFFSET -0.255298 0.007772 -0.005559
								CHANNELS 3 Zrotation Yrotation Xrotation
								End Site
								{
									OFFSET 0.000000 0.000000 0.000000
								}
							}
						}
					}
				}
			}
		}
	}
}
MOTION
Frames: 16
Frame Time: 0.050000
0.126926 0.912267 1.549091 -3.530437 15.398888 -10.553177 8.513407 -0.363144 7.899093 2.216355 -5.891484 42.512767 -11.308232 -7.519878 19.734241 0.000000 0.000000 0.000000 1.580073 1.254479 -11.947619 0.039415 -0.125682 21.622944 -1.634160 -5.475302 7.847686 0.000000 0.000000 0.000000 0.251407 -0.735386 12.420041 1.729587 -1.302057 4.394435 0.424070 -1.658401 -0.513714 -1.360396 2.498343 -16.062499 0.000000 0.000000 0.000000 -27.221617 2.982239 -6.711515 -35.470917 -2.934257 -2.531600 5.823251 -32.231971 -0.952562 0.000000 0.000000 0.000000 22.512991 2.214261 0.598335 42.221541 4.005709 -2.946439 -7.615762 30.141541 -0.590664 0.000000 0.000000 0.000000 
0.126863 0.915781 1.596297 -4.083064 14.842100 -11.615739 9.803991 -0.275085 -1.871433 -2.308972 -6.408433 57.812563 -8.097445 0.947588 29.295041 0.000000 0.000000 0.000000 3.473985 1.020809 -7.417797 -0.432477 0.075866 20.918765 -1.790635 -5.450830 4.956528 0.000000 0.000000 0.000000 0.884304 -0.899259 13.754372 0.283642 -0.356939 3.048334 1.715689 0.483912 1.617947 -0.245173 2.122205 -16.964112 0.000000 0.000000 0.000000 -28.535712 2.140454 -7.079502 -35.867177 -2.119866 -2.730547 3.839421 -32.314547 -0.477320 0.000000 0.000000 0.000000 22.827818 2.576126 1.444694 40.545734 6.804455 -2.366511 -7.063041 27.288372 -0.308153 0.000000 0.000000 0.000000 
0.132172 0.925009 1.638220 -3.729478 13.871034 -11.214883 8.741474 -0.363553 -8.956283 -2.453478 -5.086781 52.867627 0.297820 12.090567 35.514399 0.000000 0.000000 0.000000 3.391937 0.388168 -2.393403 -0.232662 0.184310 16.277379 -1.265364 -4.235182 4.416822 0.000000 0.000000 0.000000 0.435664 -0.847325 13.809115 0.018325 -0.193193 2.883854 1.740104 2.688289 2.094894 1.058753 1.525431 -16.821475 0.000000 0.000000 0.000000 -27.621291 2.239365 -7.505328 -37.730931 -0.740379 -3.180272 0.843069 -30.900872 0.244299 0.000000 0.000000 0.000000 23.757304 3.560236 2.637605 38.358439 9.703922 -1.694144 -7.111978 26.136559 -0.252095 0.000000 0.000000 0.000000 
0.142225 0.937154 1.678174 -2.804817 12.006235 -10.144635 7.614374 -0.576871 -13.104452 -0.688608 -2.709088 34.234422 10.778910 21.978828 51.100460 0.000000 0.000000 0.000000 2.626890 -0.265583 2.241949 -0.939478 0.431953 10.875718 -0.032884 -1.918223 6.065542 0.000000 0.000000 0.000000 0.087429 -0.761289 13.552306 -1.280962 0.548878 2.177616 2.503372 4.144876 2.944167 0.944629 1.712693 -17.485714 0.000000 0.000000 0.000000 -27.574673 2.536347 -7.772112 -38.595485 1.641677 -4.029007 -2.383631 -31.093907 1.131065 0.000000 0.000000 0.000000 23.561862 4.028798 3.090310 38.280537 12.824623 -0.877499 -7.646603 27.252376 -0.338210 0.000000 0.000000 0.000000 
0.156077 0.945331 1.717151 -1.954280 9.728451 -9.153605 6.313930 -0.676155 -13.493547 2.031211 -1.406692 16.153285 -0.879112 11.599325 37.829162 0.000000 0.000000 0.000000 1.119113 -0.627663 5.153041 -1.068531 0.444577 8.403178 1.394852 0.565307 7.580021 0.000000 0.000000 0.000000 -0.243790 -0.669434 13.238882 -2.127511 1.029461 1.341329 3.010195 5.877789 3.394164 0.935141 1.849590 -18.174929 0.000000 0.000000 0.000000 -27.408456 3.564538 -8.501090 -39.733128 3.663144 -4.797132 -5.133958 -30.346362 1.806422 0.000000 0.000000 0.000000 22.671595 4.012116 3.191462 36.986450 14.595062 -0.429116 -7.293035 29.218595 -0.238574 0.000000 0.000000 0.000000 
0.173259 0.946780 1.756109 -1.343376 7.997815 -8.580292 4.722257 -0.694561 -11.817925 4.509398 -1.041116 6.918778 -6.770097 0.848127 24.573712 0.000000 0.000000 0.000000 -0.504942 -0.849273 7.669272 -1.190000 0.454729 7.396528 2.324514 2.380431 7.653769 0.000000 0.000000 0.000000 -0.737468 -0.531649 12.108705 -2.384695 1.121833 2.498526 3.143734 6.715147 3.277979 1.140604 1.702124 -18.095179 0.000000 0.000000 0.000000 -26.442997 4.239821 -8.559364 -40.952386 4.752666 -5.384937 -5.815349 -30.202446 1.971609 0.000000 0.000000 0.000000 21.296839 4.887876 3.548133 37.052553 15.573293 -0.035817 -7.431080 32.442800 -0.278663 0.000000 0.000000 0.000000 
0.193252 0.943473 1.795512 -1.239714 5.680654 -8.671728 3.819486 -0.595550 -9.632729 5.432483 -1.122862 6.118556 -6.028841 -0.445576 20.199073 0.000000 0.000000 0.000000 -1.058674 -0.985479 9.559312 -2.739948 0.848880 9.056409 2.738019 3.976091 5.730712 0.000000 0.000000 0.000000 -1.079056 -0.441013 11.374030 -3.194472 1.565779 2.225499 4.393054 7.361514 4.567494 1.875554 1.186490 -17.851931 0.000000 0.000000 0.000000 -26.415231 3.597797 -7.937474 -41.569428 5.803957 -5.965099 -5.055745 -30.295790 1.843069 0.000000 0.000000 0.000000 22.333842 4.858466 3.469522 34.979547 16.085404 -0.076119 -6.619865 36.003779 -0.095442 0.000000 0.000000 0.000000 
0.216189 0.939285 1.834197 -1.467410 5.115367 -9.129798 3.347924 -0.501322 -7.854155 4.673780 -1.232377 8.745008 -4.198963 0.058341 15.410020 0.000000 0.000000 0.000000 -1.549237 -1.007804 10.217879 -3.459035 1.293514 14.091712 2.118313 3.243865 4.222634 0.000000 0.000000 0.000000 -1.142006 -0.399494 10.589089 -2.979162 1.461930 2.114874 4.960922 6.412021 5.839407 1.603746 1.218602 -17.862757 0.000000 0.000000 0.000000 -26.544062 2.893631 -7.127482 -41.263045 5.625787 -6.028801 -3.376330 -29.745673 1.481795 0.000000 0.000000 0.000000 22.530435 4.729623 3.089087 34.034714 14.899656 -0.434850 -5.693067 38.859537 0.142238 0.000000 0.000000 0.000000 
0.239897 0.937525 1.869441 -1.245576 3.868235 -9.524263 2.301725 -0.369120 -5.270301 3.932531 -1.177682 9.852673 -2.454782 0.806726 11.189017 0.000000 0.000000 0.000000 -2.640941 -0.674005 7.743955 -3.594935 1.911460 23.253228 1.749169 1.303718 6.190015 0.000000 0.000000 0.000000 -2.047520 -0.324919 10.476061 -2.408132 1.175782 2.260584 5.024094 5.768979 6.600733 1.205782 1.390838 -18.642261 0.000000 0.000000 0.000000 -27.793061 2.217486 -6.568199 -39.271154 4.316192 -5.401950 -1.584971 -29.713007 1.122828 0.000000 0.000000 0.000000 23.794871 4.336585 2.544841 33.832759 13.901211 -0.670952 -5.129438 40.944249 0.254387 0.000000 0.000000 0.000000 
0.260467 0.938984 1.900455 -0.743048 2.104588 -9.394187 1.444638 -0.207902 -2.767873 2.522130 -0.865779 9.624298 -1.001687 2.136548 8.954677 0.000000 0.000000 0.000000 -3.581050 -0.121576 1.405374 -3.459976 2.828919 35.732568 2.167378 -0.694583 12.233879 0.000000 0.000000 0.000000 -2.726638 -0.268182 10.789287 -2.210441 1.080638 2.547582 5.184819 4.660133 5.925500 0.240621 1.702822 -18.561357 0.000000 0.000000 0.000000 -28.318361 1.421345 -5.450003 -37.271530 2.946037 -4.838641 0.730350 -28.726922 0.636451 0.000000 0.000000 0.000000 23.308308 4.893570 2.138441 35.797342 11.051217 -1.102497 -5.084590 41.927674 0.066870 0.000000 0.000000 0.000000 
0.276052 0.941900 1.928648 -0.715779 2.297046 -9.179156 0.238054 -0.034295 -0.375140 2.898377 -0.854916 8.364810 -0.797810 2.027189 7.780041 0.000000 0.000000 0.000000 -3.946932 0.283250 -4.653685 -2.624183 2.972432 44.934244 1.755789 -3.875356 18.978564 0.000000 0.000000 0.000000 -2.623376 -0.279834 11.002930 -1.920807 0.905661 3.826270 5.032138 1.836248 3.435487 0.014006 1.409405 -17.215924 0.000000 0.000000 0.000000 -28.340721 1.948938 -4.820874 -34.721363 0.864575 -4.071016 2.673304 -29.931359 0.302391 0.000000 0.000000 0.000000 22.841540 3.708411 0.438850 37.999139 7.595282 -1.602138 -1.395527 43.168706 1.093070 0.000000 0.000000 0.000000 
0.287295 0.946346 1.956034 -1.456343 2.583552 -9.292414 -0.057008 0.181233 2.084322 3.732210 -0.937110 7.366169 -0.878320 1.743425 7.368921 0.000000 0.000000 0.000000 -3.227893 0.564112 -8.209668 -1.452977 2.265168 45.811784 -0.210715 -5.677278 13.763459 0.000000 0.000000 0.000000 -2.242429 -0.328865 11.517432 -0.603744 0.213673 3.139080 4.358636 0.427211 3.809725 0.037869 1.218819 -16.298351 0.000000 0.000000 0.000000 -28.016167 1.027638 -3.793935 -32.868161 -1.437437 -3.419556 6.991496 -30.578483 -0.788307 0.000000 0.000000 0.000000 22.866352 2.773734 -0.420282 38.415182 4.533909 -2.432785 0.220140 41.926034 1.525862 0.000000 0.000000 0.000000 
0.294440 0.949854 1.982581 -2.058321 3.061944 -8.642124 -0.105311 0.349600 4.034685 4.406504 -0.912620 5.597238 -1.109129 1.315908 7.239679 0.000000 0.000000 0.000000 -2.016671 0.791781 -9.866166 -0.927833 1.552671 37.878607 -1.702195 -6.519966 6.802518 0.000000 0.000000 0.000000 -1.380280 -0.374247 10.824373 -0.765041 0.290709 3.171345 5.001267 -2.087823 3.672093 -1.019782 1.627823 -16.720361 0.000000 0.000000 0.000000 -27.711347 2.134619 -3.596229 -30.820636 -3.940299 -2.886882 11.388189 -31.788554 -1.886848 0.000000 0.000000 0.000000 21.420516 2.244550 -1.290775 40.074564 1.395393 -3.276915 1.979211 39.393504 1.774233 0.000000 0.000000 0.000000 
0.298051 0.951598 2.008027 -2.052526 2.936141 -7.505799 -0.130106 0.447050 5.134654 4.215274 -0.790086 4.444067 -1.042136 1.381952 7.150751 0.000000 0.000000 0.000000 -1.362362 0.901765 -10.387917 -0.887560 1.145965 26.042797 -0.983308 -4.183844 4.437945 0.000000 0.000000 0.000000 -0.792515 -0.391771 10.318655 -0.354516 0.078126 2.974714 4.135669 -2.180890 1.995519 -0.382497 1.157484 -15.010252 0.000000 0.000000 0.000000 -25.853951 2.529720 -3.679011 -31.349477 -4.438413 -2.695208 16.631810 -33.888719 -3.599925 0.000000 0.000000 0.000000 21.794551 0.315001 -2.470766 40.471374 -1.294139 -4.003107 1.178413 34.713287 1.300863 0.000000 0.000000 0.000000 
0.297957 0.950532 2.032738 -1.553623 3.853154 -6.775269 -0.258231 0.521386 6.005597 3.811711 -0.708127 4.202182 -1.319181 0.630642 6.472418 0.000000 0.000000 0.000000 -0.657667 0.868908 -9.347567 -1.926295 1.109341 18.076812 0.910986 0.094797 4.680116 0.000000 0.000000 0.000000 -0.375780 -0.400450 9.726146 -0.373550 0.091512 2.655373 3.270310 -2.999725 1.532879 -0.486211 1.188531 -14.707333 0.000000 0.000000 0.000000 -24.973984 3.120582 -3.888044 -31.325083 -5.330085 -2.464644 21.467397 -35.701757 -5.336373 0.000000 0.000000 0.000000 21.724630 -0.824023 -3.160941 41.683553 -3.935116 -4.934723 -3.746060 30.734981 -0.121256 0.000000 0.000000 0.000000 
0.294169 0.949134 2.057356 -1.083459 4.392716 -6.260897 -0.439480 0.526145 5.976623 3.936703 -0.862649 6.000204 -1.331878 0.352856 5.871800 0.000000 0.000000 0.000000 -0.073005 0.807451 -8.212629 -2.981480 1.239079 15.325503 1.717541 1.671503 5.359056 0.000000 0.000000 0.000000 0.205700 -0.427590 9.428206 -1.089777 0.466403 2.441362 2.801233 -3.287698 0.321991 -1.273413 1.649934 -14.049006 0.000000 0.000000 0.000000 -25.335234 3.694208 -4.345009 -30.719600 -5.489707 -2.299627 22.778342 -35.716735 -5.786575 0.000000 0.000000 0.000000 21.903029 -2.215358 -3.990542 41.706996 -5.629302 -5.383948 -6.617273 26.895263 -0.728674 0.000000 0.000000 0.000000 
